#!OML:ASF X:\für Bonn\!DataBase\2005_08_10_Bjorn_Final\c3d\bjorn.ASF
:FULLY-SPECIFIED
:DEGREES
196
root 16.1242 17.6037 0.127916 1088.74 -64.6766 -328.274
lowerback 69.4396 -1.19953 11.3645
upperback 18.6879 3.00346 -0.853779
thorax 0.741419 1.90631 -6.66563
lowerneck 7.66828 -6.99059 11.76
upperneck -20.1879 -8.45464 -1.71765
head -8.12833 -4.93775 -1.64922
rclavicle 7.31528e-014 -3.81667e-014
rhumerus 83.2623 -3.98106 -38.5235
rradius -0.591081
rwrist 41.5522
rhand -38.2153 35.512
rfingers 7.12502
rthumb -11.2469 5.8335
lclavicle 7.31528e-014 -3.81667e-014
lhumerus -6.30439 -25.6544 88.4732
lradius 51.0415
lwrist 1.03946
lhand -30.5531 -15.6474
lfingers 7.12502
lthumb -3.85163 14.2976
rfemur -77.0115 -18.3712 12.4223
rtibia 64.7076
rfoot -19.8835 9.02261
rtoes -6.87881
lfemur -72.9632 -4.72828 -26.2955
ltibia 57.1445
lfoot -13.9495 -9.16189
ltoes -5.30218
197
root 16.1233 17.6004 0.134155 1088.61 -64.7122 -328.173
lowerback 69.7246 -1.23896 11.3697
upperback 18.6078 3.00239 -0.863065
thorax 0.669772 1.90192 -6.67039
lowerneck 7.70487 -7.01153 11.8147
upperneck -20.2933 -8.46653 -1.69137
head -8.17348 -4.95356 -1.64446
rclavicle -6.36111e-014 -5.08889e-014
rhumerus 83.3729 -4.02891 -37.7791
rradius -0.775011
rwrist 42.0069
rhand -37.9136 34.7778
rfingers 7.12502
rthumb -10.9559 5.08364
lclavicle -6.36111e-014 -5.08889e-014
lhumerus -6.29986 -25.578 88.4874
lradius 51.0637
lwrist 1.06247
lhand -30.6433 -15.6029
lfingers 7.12502
lthumb -3.93872 14.3404
rfemur -76.9833 -18.3579 12.3377
rtibia 64.7553
rfoot -19.8952 9.04806
rtoes -6.86036
lfemur -72.9374 -4.72884 -26.3506
ltibia 57.1997
lfoot -13.996 -9.14171
ltoes -5.20838
198
root 16.123 17.5977 0.139688 1088.4 -64.7514 -327.976
lowerback 69.9998 -1.26112 11.3433
upperback 18.5428 2.99893 -0.854207
thorax 0.611172 1.89338 -6.64128
lowerneck 7.73302 -7.02341 11.784
upperneck -20.4202 -8.46433 -1.58951
head -8.21585 -4.96438 -1.60295
rclavicle -1.90833e-014 4.13472e-014
rhumerus 83.4939 -4.09448 -37.0016
rradius -1.00321
rwrist 42.2594
rhand -37.6629 34.0834
rfingers 7.12502
rthumb -10.7141 4.3766
lclavicle -1.90833e-014 4.13472e-014
lhumerus -6.27884 -25.5025 88.5319
lradius 51.0917
lwrist 1.04564
lhand -30.76 -15.456
lfingers 7.12502
lthumb -4.05135 14.4852
rfemur -76.9695 -18.3436 12.2117
rtibia 64.8045
rfoot -19.9207 9.02495
rtoes -6.95377
lfemur -72.9089 -4.72118 -26.4695
ltibia 57.2486
lfoot -14.0457 -9.09662
ltoes -5.46529
199
root 16.1228 17.5948 0.145755 1088.24 -64.7896 -327.833
lowerback 70.2814 -1.30172 11.364
upperback 18.4584 3.00763 -0.862687
thorax 0.538295 1.89472 -6.65488
lowerneck 7.74404 -7.05146 11.7854
upperneck -20.4889 -8.48101 -1.49215
head -8.23884 -4.98403 -1.56723
rclavicle -2.54444e-014 4.45278e-014
rhumerus 83.5499 -4.17785 -36.2354
rradius -1.25632
rwrist 42.4118
rhand -37.4886 33.4799
rfingers 7.12502
rthumb -10.546 3.76451
lclavicle -2.54444e-014 4.45278e-014
lhumerus -6.27237 -25.4827 88.5706
lradius 51.0856
lwrist 1.07002
lhand -30.869 -15.4393
lfingers 7.12502
lthumb -4.15667 14.4999
rfemur -76.9677 -18.3503 12.1352
rtibia 64.8531
rfoot -19.9492 9.03174
rtoes -7.15135
lfemur -72.8883 -4.73039 -26.5372
ltibia 57.2981
lfoot -14.0963 -9.06175
ltoes -5.47792
200
root 16.1227 17.5929 0.151722 1088.05 -64.8357 -327.669
lowerback 70.5495 -1.32149 11.348
upperback 18.3928 3.01217 -0.847911
thorax 0.481271 1.8891 -6.62615
lowerneck 7.77893 -7.09041 11.7347
upperneck -20.5812 -8.51869 -1.39006
head -8.27247 -5.01131 -1.51817
rclavicle -1.90833e-014 4.45278e-014
rhumerus 83.6582 -4.231 -35.4485
rradius -1.576
rwrist 42.3449
rhand -37.4143 33.2305
rfingers 7.12502
rthumb -10.4743 3.51142
lclavicle -1.90833e-014 4.45278e-014
lhumerus -6.27576 -25.4164 88.627
lradius 51.124
lwrist 1.13337
lhand -31.0073 -15.4045
lfingers 7.12502
lthumb -4.29014 14.532
rfemur -76.9358 -18.3254 12.0138
rtibia 64.8978
rfoot -19.959 9.04413
rtoes -7.16949
lfemur -72.8532 -4.71912 -26.6387
ltibia 57.3427
lfoot -14.1519 -9.01481
ltoes -5.58756
201
root 16.1229 17.5907 0.157415 1087.85 -64.8774 -327.504
lowerback 70.8234 -1.35627 11.3626
upperback 18.3231 3.02045 -0.848285
thorax 0.424967 1.89 -6.62784
lowerneck 7.79174 -7.1352 11.6951
upperneck -20.6858 -8.55698 -1.24953
head -8.30555 -5.04412 -1.45845
rclavicle -5.08889e-014 4.13472e-014
rhumerus 83.6783 -4.32816 -34.6713
rradius -1.81693
rwrist 42.1853
rhand -37.4001 33.1565
rfingers 7.12502
rthumb -10.4606 3.43672
lclavicle -5.08889e-014 4.13472e-014
lhumerus -6.30213 -25.4162 88.6742
lradius 51.1674
lwrist 1.1628
lhand -31.1643 -15.3706
lfingers 7.12502
lthumb -4.4418 14.5628
rfemur -76.9118 -18.311 11.9074
rtibia 64.943
rfoot -19.9849 9.04205
rtoes -7.23589
lfemur -72.8148 -4.72908 -26.7127
ltibia 57.386
lfoot -14.2031 -8.97391
ltoes -5.61343
202
root 16.1239 17.5884 0.164108 1087.66 -64.9274 -327.334
lowerback 71.0802 -1.38106 11.3663
upperback 18.2541 3.03114 -0.84111
thorax 0.367268 1.88959 -6.61807
lowerneck 7.76566 -7.17712 11.6898
upperneck -20.7344 -8.60553 -1.17554
head -8.31766 -5.07682 -1.42736
rclavicle -5.40694e-014 -2.8625e-014
rhumerus 83.5927 -4.40303 -33.8928
rradius -1.87222
rwrist 41.8876
rhand -37.3087 33.1389
rfingers 7.12502
rthumb -10.3725 3.41476
lclavicle -5.40694e-014 -2.8625e-014
lhumerus -6.34979 -25.4407 88.7269
lradius 51.2242
lwrist 1.22367
lhand -31.2879 -15.3133
lfingers 7.12502
lthumb -4.56111 14.6176
rfemur -76.89 -18.3077 11.8008
rtibia 64.9832
rfoot -19.9645 9.07628
rtoes -7.19222
lfemur -72.782 -4.71507 -26.8232
ltibia 57.4292
lfoot -14.2656 -8.91888
ltoes -5.78338
